<svg xmlns="http://www.w3.org/2000/svg" width="204" height="204" viewBox="0 0 204 204">
  <defs>
    <style>
      .cls-1, .cls-2 {
        fill-rule: evenodd;
      }

      .cls-2 {
        fill: #fff;
      }
    </style>
  </defs>
  <path class="cls-1" d="M11,18c2.039,0.022,20.52,0,34,0,8.792,4.074,10.04,7.669,10.028,13.694,2.52-.061,3.949,0,5.056,0s118.383-.123,121.334,0C186.825,32,188.132,33.283,189,36.75c0,29.979-1,46.4-2.528,68.25-0.057,5.95-3.511,12.61-10.111,12.639-2.168.029-91.035-.015-106.167,0a6.7,6.7,0,0,0-5.055,5.055c-0.005.692,0,7.134,0,12.639a7.128,7.128,0,0,0,5.055,5.056c23.328-.037,102.862,0,107.528,0,8.242,5.269,8.113,12.427,0,17.694-30.524.009-84.087-.013-112.583,0-9.414.072-14.357-1.9-17.695-10.111C44.826,106.826,43.37,39.516,36,36H11C6.324,33.29,6.342,22,11,18ZM72,172a14.678,14.678,0,0,1,15,15c-0.027,7.922-5.841,14-15,14s-14.966-6.109-15-14A14.744,14.744,0,0,1,72,172Zm90-1c9.031,0,14.929,7,15,15A15,15,0,1,1,162,171Z"/>
  <path class="cls-2" d="M111,48a7.47,7.47,0,0,1,12,0c0,0.985,0,21,0,21s20,0,21,0a7.5,7.5,0,0,1,0,12c-0.971.027-21,0-21,0s0.007,20,0,21a7.519,7.519,0,0,1-12,0V81s-20.013-.008-21,0a7.489,7.489,0,0,1,0-12h21S111,48.99,111,48Z"/>
</svg>
