<svg xmlns="http://www.w3.org/2000/svg" width="204" height="204" viewBox="0 0 204 204">
  <defs>
    <style>
      .cls-1 {
        fill-rule: evenodd;
      }
    </style>
  </defs>
  <path class="cls-1" d="M103,39c4.677,0,9.229-12.623,33-13s32.4,8.04,41,20c24.465,38.153-1.057,64.213-19,80-7.325,7.325-47.625,52.956-56,53s-38.651-35.651-56-53C25.762,108,3.42,81.265,29,44c7-10.2,15.984-17.874,39-18S98.323,39,103,39ZM64,43c-17.288.277-32.757,23.137-29,42,4.7,9.884,10.194,14.571,13,18,4.261,3.326,50.635,54.291,55,54,1.275-.085,48.371-47.049,59.064-58.6A47.366,47.366,0,0,0,169,84c3.776-26.167-16.178-41.269-31-41-23.561-.085-31.182,17.752-37,17C95.293,60.69,91.724,43.013,64,43Z"/>
</svg>
